<svg
  width="20px"
  height="20px"
  viewBox="0 0 16 16"
  version="1.1"
  xmlns="http://www.w3.org/2000/svg"
  xlink="http://www.w3.org/1999/xlink"
>
  <g id="页面-1" stroke="none" strokeWidth="1" fill="none" fillRule="evenodd">
    <g id="CALL-逻辑流2-icon">
      <rect id="矩形" fill-opacity="0.01" fill="#FFFFFF" x="0" y="0" width="16" height="16"></rect>
      <path
        d="M9,11 C9.27614237,11 9.5,11.2238576 9.5,11.5 C9.5,11.7564179 9.3069799,11.9677536 9.05831056,11.9966361 L9,12 L6,12 L6,14 L9,14 C9.27614237,14 9.5,14.2238576 9.5,14.5 C9.5,14.7564179 9.3069799,14.9677536 9.05831056,14.9966361 L9,15 L6,15 C5.4728191,15 5.04091744,14.5920611 5.00274287,14.0746312 L5,14 L5,12 C5,11.4728191 5.4079389,11.0409174 5.92536883,11.0027429 L6,11 L9,11 Z M4.5,7.5 C4.77614237,7.5 5,7.72385763 5,8 C5,8.25641792 4.8069799,8.46775358 4.55831056,8.49663613 L4.5,8.5 L2,8.5 L1.9995,12.5 L2.3515,12.5 L2.35162812,11.954594 C2.35162812,11.9229834 2.35762117,11.8918072 2.36914106,11.8626712 L2.39050776,11.8206978 C2.45624006,11.7170547 2.58559337,11.6782207 2.69541793,11.7228071 L2.73552433,11.7434737 L4.38386431,12.7888796 C4.41498234,12.8086152 4.44135286,12.8349858 4.46108846,12.8661038 C4.52682075,12.9697469 4.50680628,13.1033126 4.41965622,13.1836509 L4.38386431,13.2111204 L2.73552433,14.2565263 C2.6954824,14.2819216 2.64904412,14.295406 2.60162812,14.295406 C2.47889818,14.295406 2.37682393,14.2069684 2.35565595,14.0903438 L2.35162812,14.045406 L2.3515,13.5 L1.5,13.5 C1.24358208,13.5 1.03224642,13.3069799 1.00336387,13.0583106 L1,13 L1,8 C1,7.74358208 1.1930201,7.53224642 1.44168944,7.50336387 L1.5,7.5 L4.5,7.5 Z M8.6434994,5.82026328 L8.70710678,5.87867966 L10.1213203,7.29289322 C10.4912907,7.6628636 10.5107629,8.25060568 10.1797367,8.6434994 L10.1213203,8.70710678 L8.70710678,10.1213203 C8.3371364,10.4912907 7.74939432,10.5107629 7.3565006,10.1797367 L7.29289322,10.1213203 L5.87867966,8.70710678 C5.50870927,8.3371364 5.48923715,7.74939432 5.82026328,7.3565006 L5.87867966,7.29289322 L7.29289322,5.87867966 C7.6628636,5.50870927 8.25060568,5.48923715 8.6434994,5.82026328 Z M8,6.58578644 L6.58578644,8 L8,9.41421356 L9.41421356,8 L8,6.58578644 Z M14.5,2.5 C14.7761424,2.5 15,2.72385763 15,3 L15,8 C15,8.25641792 14.8069799,8.46775358 14.5583106,8.49663613 L14.5,8.5 L12.9742019,8.5 L12.9745738,9.04540597 C12.9745738,9.18347716 12.862645,9.29540597 12.7245738,9.29540597 C12.6771578,9.29540597 12.6307195,9.28192162 12.5906776,9.25652633 L10.9423376,8.21112036 C10.8257391,8.13717152 10.7911646,7.98270234 10.8651135,7.86610379 C10.8848491,7.83498576 10.9112196,7.80861524 10.9423376,7.78887964 L12.5906776,6.74347367 C12.7072762,6.66952484 12.8617453,6.70409927 12.9356942,6.82069782 C12.9610895,6.86073975 12.9745738,6.90717803 12.9745738,6.95459403 L12.9742019,7.5 L13.9997019,7.5 L13.9997019,3.5 L12.5,3.5 C12.2238576,3.5 12,3.27614237 12,3 C12,2.72385763 12.2238576,2.5 12.5,2.5 L14.5,2.5 Z M10,1 C10.5271809,1 10.9590826,1.4079389 10.9972571,1.92536883 L11,2 L11,4 C11,4.5271809 10.5920611,4.95908256 10.0746312,4.99725713 L10,5 L6,5 C5.4728191,5 5.04091744,4.5920611 5.00274287,4.07463117 L5,4 L5,2 C5,1.4728191 5.4079389,1.04091744 5.92536883,1.00274287 L6,1 L10,1 Z M10,2 L6,2 L6,4 L10,4 L10,2 Z"
        id="形状"
        fill="#737373"
        fillRule="nonzero"
      ></path>
      <path
        d="M11.7842644,14.9414478 C11.8174224,14.9077256 11.8360251,14.862172 11.8360251,14.8146978 L11.8361127,13.8158926 C13.3296284,13.6814464 14.5,12.427971 14.5,10.9015196 L14.4957368,10.7811667 L14.4957368,10.7811667 L14.4850108,10.6560675 C14.4747113,10.5571587 14.3867987,10.4853915 14.2886527,10.4957711 C14.2449649,10.5003914 14.2044968,10.5210675 14.1749772,10.5538508 L14.135203,10.5975608 L14.0605366,10.6767901 C14.0129289,10.7259693 13.9696607,10.7678678 13.9307322,10.8024857 C13.3652318,11.3053664 12.6376832,11.6304068 11.8360857,11.6897739 L11.8360251,10.7127364 C11.8360251,10.6132836 11.7560244,10.5326611 11.6573385,10.5326611 C11.6102304,10.5326611 11.5650282,10.5514084 11.531566,10.5848241 L9.60582825,12.5078925 C9.47300866,12.640528 9.4650912,12.8521694 9.58274894,12.994213 L9.60582825,13.0195418 L11.531566,14.9426102 C11.6016653,15.0126122 11.7148022,15.0120918 11.7842644,14.9414478 Z"
        id="路径"
        fill="#1B58F4"
      ></path>
    </g>
  </g>
</svg>
