<?xml version="1.0" encoding="UTF-8"?>
<svg width="16px" height="16px" viewBox="0 0 20 20" version="1.1" xmlns="http://www.w3.org/2000/svg" xmlns:xlink="http://www.w3.org/1999/xlink">
    <title>聚合 icon</title>
    <g id="规范" stroke="none" stroke-width="1" fill="none" fill-rule="evenodd">
        <g id="ICON&amp;插画整理" transform="translate(-141.000000, -2126.000000)">
            <g id="对象操作" transform="translate(138.000000, 2086.000000)">
                <g id="对象操作-icon" transform="translate(0.000000, 40.000000)">
                    <g id="聚合-icon" transform="translate(3.000000, 0.000000)">
                        <rect id="矩形" opacity="0" x="0" y="0" width="20" height="20"></rect>
                        <path d="M15.3125,1.875 C15.7998101,1.875 16.2002804,2.24680505 16.2457084,2.72221249 L16.25,2.8125 L16.25,10 C16.25,10.345178 15.970178,10.625 15.625,10.625 C15.3044776,10.625 15.040308,10.3837249 15.0042048,10.0728882 L15,10 L15,3.125 L5,3.125 L5,15.625 L10,15.625 C10.3205224,15.625 10.584692,15.8662751 10.6207952,16.1771118 L10.625,16.25 C10.625,16.5705224 10.3837249,16.834692 10.0728882,16.8707952 L10,16.875 L4.6875,16.875 C4.20018993,16.875 3.79971958,16.5031949 3.75429161,16.0277875 L3.75,15.9375 L3.75,2.8125 C3.75,2.32518993 4.12180505,1.92471958 4.59721249,1.87929161 L4.6875,1.875 L15.3125,1.875 Z M13.125,9.375 C13.470178,9.375 13.75,9.65482203 13.75,10 C13.75,10.345178 13.470178,10.625 13.125,10.625 L6.875,10.625 C6.52982203,10.625 6.25,10.345178 6.25,10 C6.25,9.65482203 6.52982203,9.375 6.875,9.375 L13.125,9.375 Z M13.125,6.875 C13.470178,6.875 13.75,7.15482203 13.75,7.5 C13.75,7.84517797 13.470178,8.125 13.125,8.125 L6.875,8.125 C6.52982203,8.125 6.25,7.84517797 6.25,7.5 C6.25,7.15482203 6.52982203,6.875 6.875,6.875 L13.125,6.875 Z M13.125,4.375 C13.470178,4.375 13.75,4.65482203 13.75,5 C13.75,5.34517797 13.470178,5.625 13.125,5.625 L6.875,5.625 C6.52982203,5.625 6.25,5.34517797 6.25,5 C6.25,4.65482203 6.52982203,4.375 6.875,4.375 L13.125,4.375 Z" id="形状" fill="#737373" fill-rule="nonzero"></path>
                        <path d="M16.875,13.75 L16.875,18.75 L11.875,18.75 L11.875,13.75 L16.875,13.75 Z M18.75,11.875 L18.75,16.875 L17.5,16.875 L17.5,13.125 L15,13.125 L15,11.875 L18.75,11.875 Z" id="形状" fill="#1B58F4"></path>
                    </g>
                </g>
            </g>
        </g>
    </g>
</svg>